<?xml version="1.0" encoding="utf-8"?>
<!-- Generator: Adobe Illustrator 19.2.0, SVG Export Plug-In . SVG Version: 6.00 Build 0)  -->
<svg version="1.1" id="Layer_1" xmlns="http://www.w3.org/2000/svg" xmlns:xlink="http://www.w3.org/1999/xlink" x="0px" y="0px"
	 viewBox="0 0 546.6 84.4" style="enable-background:new 0 0 546.6 84.4;" xml:space="preserve">
<style type="text/css">
	.st0{fill:#FFFFFF;}
</style>
<g>
	<path class="st0" d="M152.7,8.6c4.3-0.7,10-1.3,17.2-1.3c8.9,0,15.4,2.1,19.5,5.8c3.8,3.3,6.1,8.4,6.1,14.5
		c0,6.3-1.9,11.2-5.4,14.9c-4.7,5.1-12.5,7.6-21.3,7.6c-2.7,0-5.2-0.1-7.2-0.6v27.9h-9V8.6z M161.7,42.1c2,0.5,4.4,0.7,7.4,0.7
		c10.8,0,17.4-5.3,17.4-14.9c0-9.2-6.5-13.6-16.4-13.6c-3.9,0-6.9,0.3-8.5,0.7V42.1z"/>
	<path class="st0" d="M215.7,13.4c0.1,3.1-2.2,5.6-5.8,5.6c-3.2,0-5.5-2.5-5.5-5.6c0-3.2,2.4-5.7,5.7-5.7
		C213.6,7.7,215.7,10.2,215.7,13.4z M205.6,77.3V27.4h9.1v49.9H205.6z"/>
	<path class="st0" d="M230.1,77.3V7.8h9.8L262.2,43c5.2,8.1,9.2,15.5,12.5,22.6l0.2-0.1c-0.8-9.3-1-17.7-1-28.6V7.8h8.5v69.5h-9.1
		L251.1,42c-4.8-7.7-9.5-15.7-13-23.2l-0.3,0.1c0.5,8.8,0.7,17.1,0.7,28.7v29.7H230.1z"/>
	<path class="st0" d="M309.3,77.3L291.7,7.8h9.5l8.3,35.2c2.1,8.7,3.9,17.3,5.2,24h0.2c1.1-6.9,3.3-15.2,5.7-24.1l9.3-35.1h9.4
		l8.5,35.3c2,8.3,3.8,16.5,4.8,23.8h0.2c1.4-7.6,3.4-15.4,5.6-24l9.2-35.1h9.2l-19.7,69.5h-9.4l-8.8-36.2
		c-2.2-8.9-3.6-15.7-4.5-22.7H334c-1.2,6.9-2.8,13.7-5.4,22.7l-9.9,36.2H309.3z"/>
	<path class="st0" d="M390.6,55.4l-7.2,21.9h-9.3l23.6-69.5h10.8l23.7,69.5h-9.6l-7.4-21.9H390.6z M413.4,48.4l-6.8-20
		c-1.5-4.5-2.6-8.7-3.6-12.7h-0.2c-1,4.1-2.2,8.4-3.5,12.6l-6.8,20.1H413.4z"/>
	<path class="st0" d="M442.5,7.8h9v62h29.7v7.5h-38.7V7.8z"/>
	<path class="st0" d="M491.2,7.8h9v62h29.7v7.5h-38.7V7.8z"/>
	<polygon class="st0" points="81.2,73.4 71,61.5 60.9,49.5 60.3,49.2 75.9,31.4 51.8,25 36.6,21 36,18.9 32.6,6.7 24.6,16 
		16.6,25.2 28,28.2 30.4,28.8 34.6,44.6 41.6,70.5 57.2,52.7 58,53.4 	"/>
</g>
</svg>
