<?xml version="1.0" encoding="utf-8"?>
<!-- Generator: Adobe Illustrator 19.2.0, SVG Export Plug-In . SVG Version: 6.00 Build 0)  -->
<svg version="1.1" id="Layer_1" xmlns="http://www.w3.org/2000/svg" xmlns:xlink="http://www.w3.org/1999/xlink" x="0px" y="0px"
     viewBox="0 0 546.6 84.4" style="enable-background:new 0 0 546.6 84.4;" xml:space="preserve">
<style type="text/css">
    .st0{fill:#33CD99;}
</style>
<path class="st0" d="M162.2,8.6c4.3-0.7,10-1.3,17.2-1.3c8.9,0,15.4,2.1,19.5,5.8c3.8,3.3,6.1,8.4,6.1,14.5c0,6.3-1.9,11.2-5.4,14.9
    c-4.7,5.1-12.5,7.6-21.3,7.6c-2.7,0-5.2-0.1-7.2-0.6v27.9h-9V8.6z M171.2,42.2c2,0.5,4.4,0.7,7.4,0.7c10.8,0,17.4-5.3,17.4-14.9
    c0-9.2-6.5-13.6-16.4-13.6c-3.9,0-6.9,0.3-8.5,0.7V42.2z"/>
<path class="st0" d="M225.3,13.4c0.1,3.1-2.2,5.6-5.8,5.6c-3.2,0-5.5-2.5-5.5-5.6c0-3.2,2.4-5.7,5.7-5.7
    C223.1,7.7,225.3,10.2,225.3,13.4z M215.2,77.3V27.4h9.1v49.9H215.2z"/>
<path class="st0" d="M239.6,77.3V7.8h9.8L271.7,43c5.2,8.1,9.2,15.5,12.5,22.6l0.2-0.1c-0.8-9.3-1-17.7-1-28.6V7.8h8.5v69.5h-9.1
    l-22.1-35.3c-4.8-7.7-9.5-15.7-13-23.2l-0.3,0.1c0.5,8.8,0.7,17.1,0.7,28.7v29.7H239.6z"/>
<path class="st0" d="M318.8,77.3L301.2,7.8h9.5l8.3,35.2c2.1,8.7,3.9,17.3,5.2,24h0.2c1.1-6.9,3.3-15.2,5.7-24.1l9.3-35.1h9.4
    l8.5,35.3c2,8.3,3.8,16.5,4.8,23.8h0.2c1.4-7.6,3.4-15.4,5.6-24l9.2-35.1h9.2l-19.7,69.5H357l-8.8-36.2c-2.2-8.9-3.6-15.7-4.5-22.7
    h-0.2c-1.2,6.9-2.8,13.7-5.4,22.7l-9.9,36.2H318.8z"/>
<path class="st0" d="M400.1,55.5l-7.2,21.9h-9.3l23.6-69.5h10.8l23.7,69.5h-9.6l-7.4-21.9H400.1z M422.9,48.5l-6.8-20
    c-1.5-4.5-2.6-8.7-3.6-12.7h-0.2c-1,4.1-2.2,8.4-3.5,12.6L402,48.5H422.9z"/>
<path class="st0" d="M452,7.8h9v62h29.7v7.5H452V7.8z"/>
<path class="st0" d="M500.7,7.8h9v62h29.7v7.5h-38.7V7.8z"/>
<polygon class="st0" points="122.1,94.7 106.4,76.3 90.8,57.9 89.9,57.4 113.9,30.1 76.8,20.3 53.4,14.1 52.5,10.9 47.3,-7.9
    34.9,6.3 22.6,20.6 40.1,25.1 43.9,26.1 50.4,50.3 61.1,90.2 85.1,62.8 86.4,63.9 "/>
</svg>
